<mxfile host="app.diagrams.net" modified="2024-12-02T17:50:20.415Z" agent="Mozilla/5.0 (Windows NT 10.0; Win64; x64) AppleWebKit/537.36 (KHTML, like Gecko) Chrome/131.0.0.0 Safari/537.36" etag="FZK5PgwHAXAConXtNo5m" version="21.7.2" type="device">
  <diagram id="ZgUqfLzdyJCC3IoLjUev" name="1 oldal">
    <mxGraphModel dx="2876" dy="1114" grid="1" gridSize="10" guides="1" tooltips="1" connect="1" arrows="1" fold="1" page="1" pageScale="1" pageWidth="827" pageHeight="1169" math="0" shadow="0">
      <root>
        <mxCell id="0" />
        <mxCell id="1" parent="0" />
        <mxCell id="HNxDSSGyj5gucgepbjGK-6" style="rounded=0;orthogonalLoop=1;jettySize=auto;html=1;exitX=0.5;exitY=0;exitDx=0;exitDy=0;entryX=0.5;entryY=1;entryDx=0;entryDy=0;endArrow=none;endFill=0;" parent="1" source="HNxDSSGyj5gucgepbjGK-1" target="HNxDSSGyj5gucgepbjGK-3" edge="1">
          <mxGeometry relative="1" as="geometry" />
        </mxCell>
        <mxCell id="HNxDSSGyj5gucgepbjGK-7" style="edgeStyle=none;rounded=0;orthogonalLoop=1;jettySize=auto;html=1;exitX=0.5;exitY=0;exitDx=0;exitDy=0;entryX=0.5;entryY=1;entryDx=0;entryDy=0;endArrow=none;endFill=0;" parent="1" source="HNxDSSGyj5gucgepbjGK-1" target="HNxDSSGyj5gucgepbjGK-2" edge="1">
          <mxGeometry relative="1" as="geometry" />
        </mxCell>
        <mxCell id="HNxDSSGyj5gucgepbjGK-8" style="edgeStyle=none;rounded=0;orthogonalLoop=1;jettySize=auto;html=1;exitX=0.5;exitY=0;exitDx=0;exitDy=0;entryX=0.5;entryY=1;entryDx=0;entryDy=0;endArrow=none;endFill=0;" parent="1" source="HNxDSSGyj5gucgepbjGK-1" target="HNxDSSGyj5gucgepbjGK-4" edge="1">
          <mxGeometry relative="1" as="geometry" />
        </mxCell>
        <mxCell id="DKuBouBsG_Wq9-a0t9Dg-3" style="rounded=0;orthogonalLoop=1;jettySize=auto;html=1;exitX=0.5;exitY=0;exitDx=0;exitDy=0;entryX=0.5;entryY=1;entryDx=0;entryDy=0;endArrow=none;endFill=0;" parent="1" source="HNxDSSGyj5gucgepbjGK-1" edge="1">
          <mxGeometry relative="1" as="geometry">
            <mxPoint x="590" y="120" as="targetPoint" />
          </mxGeometry>
        </mxCell>
        <mxCell id="HNxDSSGyj5gucgepbjGK-1" value="Busz" style="rounded=0;whiteSpace=wrap;html=1;fillColor=#f8cecc;strokeColor=#b85450;" parent="1" vertex="1">
          <mxGeometry x="360" y="200" width="120" height="40" as="geometry" />
        </mxCell>
        <mxCell id="HNxDSSGyj5gucgepbjGK-2" value="Rendszam" style="ellipse;whiteSpace=wrap;html=1;fillColor=#d5e8d4;strokeColor=#82b366;" parent="1" vertex="1">
          <mxGeometry x="333.5" y="80" width="80" height="40" as="geometry" />
        </mxCell>
        <mxCell id="HNxDSSGyj5gucgepbjGK-3" value="&lt;u&gt;BID&lt;/u&gt;" style="ellipse;whiteSpace=wrap;html=1;fillColor=#d5e8d4;strokeColor=#82b366;" parent="1" vertex="1">
          <mxGeometry x="230" y="80" width="80" height="40" as="geometry" />
        </mxCell>
        <mxCell id="HNxDSSGyj5gucgepbjGK-4" value="Tipus" style="ellipse;whiteSpace=wrap;html=1;fillColor=#d5e8d4;strokeColor=#82b366;" parent="1" vertex="1">
          <mxGeometry x="440" y="80" width="80" height="40" as="geometry" />
        </mxCell>
        <mxCell id="HNxDSSGyj5gucgepbjGK-5" value="max_hely" style="ellipse;whiteSpace=wrap;html=1;fillColor=#d5e8d4;strokeColor=#82b366;" parent="1" vertex="1">
          <mxGeometry x="550" y="80" width="80" height="40" as="geometry" />
        </mxCell>
        <mxCell id="HNxDSSGyj5gucgepbjGK-21" style="edgeStyle=none;rounded=0;orthogonalLoop=1;jettySize=auto;html=1;exitX=1;exitY=0.5;exitDx=0;exitDy=0;entryX=0;entryY=0.5;entryDx=0;entryDy=0;endArrow=doubleBlock;endFill=1;" parent="1" source="HNxDSSGyj5gucgepbjGK-10" target="HNxDSSGyj5gucgepbjGK-16" edge="1">
          <mxGeometry relative="1" as="geometry" />
        </mxCell>
        <mxCell id="HNxDSSGyj5gucgepbjGK-22" style="edgeStyle=none;rounded=0;orthogonalLoop=1;jettySize=auto;html=1;exitX=0;exitY=0.5;exitDx=0;exitDy=0;entryX=1;entryY=0.5;entryDx=0;entryDy=0;endArrow=classic;endFill=1;" parent="1" source="HNxDSSGyj5gucgepbjGK-10" target="HNxDSSGyj5gucgepbjGK-1" edge="1">
          <mxGeometry relative="1" as="geometry" />
        </mxCell>
        <mxCell id="HNxDSSGyj5gucgepbjGK-10" value="Vezet" style="rhombus;whiteSpace=wrap;html=1;fillColor=#f5f5f5;fontColor=#333333;strokeColor=#666666;" parent="1" vertex="1">
          <mxGeometry x="600" y="200" width="80" height="40" as="geometry" />
        </mxCell>
        <mxCell id="HNxDSSGyj5gucgepbjGK-12" style="rounded=0;orthogonalLoop=1;jettySize=auto;html=1;exitX=0.5;exitY=0;exitDx=0;exitDy=0;entryX=0.5;entryY=1;entryDx=0;entryDy=0;endArrow=none;endFill=0;" parent="1" source="HNxDSSGyj5gucgepbjGK-16" target="HNxDSSGyj5gucgepbjGK-18" edge="1">
          <mxGeometry relative="1" as="geometry" />
        </mxCell>
        <mxCell id="HNxDSSGyj5gucgepbjGK-13" style="edgeStyle=none;rounded=0;orthogonalLoop=1;jettySize=auto;html=1;exitX=0.5;exitY=0;exitDx=0;exitDy=0;entryX=0.5;entryY=1;entryDx=0;entryDy=0;endArrow=none;endFill=0;" parent="1" source="HNxDSSGyj5gucgepbjGK-16" target="HNxDSSGyj5gucgepbjGK-17" edge="1">
          <mxGeometry relative="1" as="geometry" />
        </mxCell>
        <mxCell id="HNxDSSGyj5gucgepbjGK-14" style="edgeStyle=none;rounded=0;orthogonalLoop=1;jettySize=auto;html=1;exitX=0.5;exitY=0;exitDx=0;exitDy=0;entryX=0.5;entryY=1;entryDx=0;entryDy=0;endArrow=none;endFill=0;" parent="1" source="HNxDSSGyj5gucgepbjGK-16" target="HNxDSSGyj5gucgepbjGK-19" edge="1">
          <mxGeometry relative="1" as="geometry" />
        </mxCell>
        <mxCell id="HNxDSSGyj5gucgepbjGK-15" style="edgeStyle=none;rounded=0;orthogonalLoop=1;jettySize=auto;html=1;exitX=0.5;exitY=0;exitDx=0;exitDy=0;entryX=0.5;entryY=1;entryDx=0;entryDy=0;endArrow=none;endFill=0;" parent="1" source="HNxDSSGyj5gucgepbjGK-16" target="HNxDSSGyj5gucgepbjGK-20" edge="1">
          <mxGeometry relative="1" as="geometry" />
        </mxCell>
        <mxCell id="HNxDSSGyj5gucgepbjGK-16" value="Sofőr" style="rounded=0;whiteSpace=wrap;html=1;fillColor=#f8cecc;strokeColor=#b85450;" parent="1" vertex="1">
          <mxGeometry x="800" y="200" width="120" height="40" as="geometry" />
        </mxCell>
        <mxCell id="HNxDSSGyj5gucgepbjGK-17" value="Jegykiadó&lt;br&gt;szám" style="ellipse;whiteSpace=wrap;html=1;fillColor=#d5e8d4;strokeColor=#82b366;" parent="1" vertex="1">
          <mxGeometry x="780" y="80" width="80" height="40" as="geometry" />
        </mxCell>
        <mxCell id="HNxDSSGyj5gucgepbjGK-18" value="&lt;u&gt;SID&lt;/u&gt;" style="ellipse;whiteSpace=wrap;html=1;fillColor=#d5e8d4;strokeColor=#82b366;" parent="1" vertex="1">
          <mxGeometry x="680" y="80" width="80" height="40" as="geometry" />
        </mxCell>
        <mxCell id="HNxDSSGyj5gucgepbjGK-19" value="Név" style="ellipse;whiteSpace=wrap;html=1;fillColor=#d5e8d4;strokeColor=#82b366;" parent="1" vertex="1">
          <mxGeometry x="880" y="80" width="80" height="40" as="geometry" />
        </mxCell>
        <mxCell id="HNxDSSGyj5gucgepbjGK-20" value="BID" style="ellipse;whiteSpace=wrap;html=1;fillColor=#d5e8d4;strokeColor=#82b366;" parent="1" vertex="1">
          <mxGeometry x="980" y="80" width="80" height="40" as="geometry" />
        </mxCell>
        <mxCell id="HNxDSSGyj5gucgepbjGK-33" style="edgeStyle=none;rounded=0;orthogonalLoop=1;jettySize=auto;html=1;exitX=0.5;exitY=0;exitDx=0;exitDy=0;entryX=0.5;entryY=1;entryDx=0;entryDy=0;endArrow=none;endFill=0;" parent="1" source="HNxDSSGyj5gucgepbjGK-36" target="HNxDSSGyj5gucgepbjGK-37" edge="1">
          <mxGeometry relative="1" as="geometry" />
        </mxCell>
        <mxCell id="HNxDSSGyj5gucgepbjGK-34" style="edgeStyle=none;rounded=0;orthogonalLoop=1;jettySize=auto;html=1;exitX=0.5;exitY=0;exitDx=0;exitDy=0;entryX=0.5;entryY=1;entryDx=0;entryDy=0;endArrow=none;endFill=0;" parent="1" source="HNxDSSGyj5gucgepbjGK-36" target="HNxDSSGyj5gucgepbjGK-39" edge="1">
          <mxGeometry relative="1" as="geometry" />
        </mxCell>
        <mxCell id="ZCO3qO8mkrUIWo-Z3ocP-7" style="edgeStyle=none;rounded=0;orthogonalLoop=1;jettySize=auto;html=1;exitX=0.5;exitY=0;exitDx=0;exitDy=0;entryX=0.5;entryY=1;entryDx=0;entryDy=0;endArrow=none;endFill=0;" parent="1" source="HNxDSSGyj5gucgepbjGK-36" target="HNxDSSGyj5gucgepbjGK-40" edge="1">
          <mxGeometry relative="1" as="geometry" />
        </mxCell>
        <mxCell id="ZCO3qO8mkrUIWo-Z3ocP-8" style="edgeStyle=none;rounded=0;orthogonalLoop=1;jettySize=auto;html=1;exitX=0.5;exitY=0;exitDx=0;exitDy=0;entryX=0.5;entryY=1;entryDx=0;entryDy=0;endArrow=none;endFill=0;" parent="1" source="HNxDSSGyj5gucgepbjGK-36" target="HNxDSSGyj5gucgepbjGK-38" edge="1">
          <mxGeometry relative="1" as="geometry" />
        </mxCell>
        <mxCell id="HNxDSSGyj5gucgepbjGK-36" value="Szervíz" style="rounded=0;whiteSpace=wrap;html=1;fillColor=#f8cecc;strokeColor=#b85450;" parent="1" vertex="1">
          <mxGeometry x="-80" y="200" width="120" height="40" as="geometry" />
        </mxCell>
        <mxCell id="HNxDSSGyj5gucgepbjGK-37" value="Javítói Szám" style="ellipse;whiteSpace=wrap;html=1;fillColor=#d5e8d4;strokeColor=#82b366;" parent="1" vertex="1">
          <mxGeometry x="-110" y="80" width="80" height="40" as="geometry" />
        </mxCell>
        <mxCell id="HNxDSSGyj5gucgepbjGK-38" value="&lt;u&gt;SzID&lt;/u&gt;" style="ellipse;whiteSpace=wrap;html=1;fillColor=#d5e8d4;strokeColor=#82b366;" parent="1" vertex="1">
          <mxGeometry x="-210" y="80" width="80" height="40" as="geometry" />
        </mxCell>
        <mxCell id="HNxDSSGyj5gucgepbjGK-39" value="Név" style="ellipse;whiteSpace=wrap;html=1;fillColor=#d5e8d4;strokeColor=#82b366;" parent="1" vertex="1">
          <mxGeometry x="-10" y="80" width="80" height="40" as="geometry" />
        </mxCell>
        <mxCell id="HNxDSSGyj5gucgepbjGK-40" value="BID" style="ellipse;whiteSpace=wrap;html=1;fillColor=#d5e8d4;strokeColor=#82b366;" parent="1" vertex="1">
          <mxGeometry x="90" y="80" width="80" height="40" as="geometry" />
        </mxCell>
        <mxCell id="HNxDSSGyj5gucgepbjGK-42" style="edgeStyle=none;rounded=0;orthogonalLoop=1;jettySize=auto;html=1;exitX=0;exitY=0.5;exitDx=0;exitDy=0;entryX=1;entryY=0.5;entryDx=0;entryDy=0;endArrow=doubleBlock;endFill=1;" parent="1" source="HNxDSSGyj5gucgepbjGK-41" target="HNxDSSGyj5gucgepbjGK-36" edge="1">
          <mxGeometry relative="1" as="geometry" />
        </mxCell>
        <mxCell id="HNxDSSGyj5gucgepbjGK-43" style="edgeStyle=none;rounded=0;orthogonalLoop=1;jettySize=auto;html=1;exitX=1;exitY=0.5;exitDx=0;exitDy=0;entryX=0;entryY=0.5;entryDx=0;entryDy=0;endArrow=classic;endFill=1;" parent="1" source="HNxDSSGyj5gucgepbjGK-41" target="HNxDSSGyj5gucgepbjGK-1" edge="1">
          <mxGeometry relative="1" as="geometry" />
        </mxCell>
        <mxCell id="HNxDSSGyj5gucgepbjGK-41" value="karbantart" style="rhombus;whiteSpace=wrap;html=1;fillColor=#f5f5f5;fontColor=#333333;strokeColor=#666666;" parent="1" vertex="1">
          <mxGeometry x="160" y="200" width="80" height="40" as="geometry" />
        </mxCell>
        <mxCell id="HNxDSSGyj5gucgepbjGK-56" style="edgeStyle=none;rounded=0;orthogonalLoop=1;jettySize=auto;html=1;exitX=0.5;exitY=1;exitDx=0;exitDy=0;entryX=0.5;entryY=0;entryDx=0;entryDy=0;endArrow=doubleBlock;endFill=1;" parent="1" source="HNxDSSGyj5gucgepbjGK-44" target="HNxDSSGyj5gucgepbjGK-55" edge="1">
          <mxGeometry relative="1" as="geometry" />
        </mxCell>
        <mxCell id="HNxDSSGyj5gucgepbjGK-57" style="edgeStyle=none;rounded=0;orthogonalLoop=1;jettySize=auto;html=1;exitX=0.5;exitY=0;exitDx=0;exitDy=0;entryX=0.5;entryY=1;entryDx=0;entryDy=0;endArrow=doubleBlock;endFill=1;" parent="1" source="HNxDSSGyj5gucgepbjGK-44" target="HNxDSSGyj5gucgepbjGK-1" edge="1">
          <mxGeometry relative="1" as="geometry" />
        </mxCell>
        <mxCell id="rYQzbLz1UwJ6R6FwuexM-3" style="edgeStyle=orthogonalEdgeStyle;rounded=0;orthogonalLoop=1;jettySize=auto;html=1;exitX=0;exitY=0.5;exitDx=0;exitDy=0;entryX=1;entryY=0.5;entryDx=0;entryDy=0;endArrow=none;endFill=0;" parent="1" source="HNxDSSGyj5gucgepbjGK-44" target="rYQzbLz1UwJ6R6FwuexM-1" edge="1">
          <mxGeometry relative="1" as="geometry" />
        </mxCell>
        <mxCell id="HNxDSSGyj5gucgepbjGK-44" value="halad" style="rhombus;whiteSpace=wrap;html=1;fillColor=#f5f5f5;fontColor=#333333;strokeColor=#666666;" parent="1" vertex="1">
          <mxGeometry x="380" y="280" width="80" height="40" as="geometry" />
        </mxCell>
        <mxCell id="HNxDSSGyj5gucgepbjGK-45" style="edgeStyle=none;rounded=0;orthogonalLoop=1;jettySize=auto;html=1;exitX=1;exitY=0;exitDx=0;exitDy=0;endArrow=classic;endFill=1;" parent="1" source="HNxDSSGyj5gucgepbjGK-44" target="HNxDSSGyj5gucgepbjGK-44" edge="1">
          <mxGeometry relative="1" as="geometry" />
        </mxCell>
        <mxCell id="rYQzbLz1UwJ6R6FwuexM-7" style="edgeStyle=none;rounded=0;orthogonalLoop=1;jettySize=auto;html=1;exitX=0.5;exitY=1;exitDx=0;exitDy=0;entryX=0.5;entryY=0;entryDx=0;entryDy=0;endArrow=none;endFill=0;" parent="1" source="HNxDSSGyj5gucgepbjGK-55" target="HNxDSSGyj5gucgepbjGK-60" edge="1">
          <mxGeometry relative="1" as="geometry" />
        </mxCell>
        <mxCell id="rYQzbLz1UwJ6R6FwuexM-8" style="edgeStyle=none;rounded=0;orthogonalLoop=1;jettySize=auto;html=1;exitX=0.5;exitY=1;exitDx=0;exitDy=0;entryX=0.5;entryY=0;entryDx=0;entryDy=0;endArrow=none;endFill=0;" parent="1" source="HNxDSSGyj5gucgepbjGK-55" target="HNxDSSGyj5gucgepbjGK-59" edge="1">
          <mxGeometry relative="1" as="geometry" />
        </mxCell>
        <mxCell id="ZCO3qO8mkrUIWo-Z3ocP-9" style="edgeStyle=none;rounded=0;orthogonalLoop=1;jettySize=auto;html=1;exitX=0.5;exitY=1;exitDx=0;exitDy=0;entryX=0.5;entryY=0;entryDx=0;entryDy=0;endArrow=none;endFill=0;" parent="1" source="HNxDSSGyj5gucgepbjGK-55" target="rYQzbLz1UwJ6R6FwuexM-5" edge="1">
          <mxGeometry relative="1" as="geometry" />
        </mxCell>
        <mxCell id="ZCO3qO8mkrUIWo-Z3ocP-10" style="edgeStyle=none;rounded=0;orthogonalLoop=1;jettySize=auto;html=1;exitX=0.5;exitY=1;exitDx=0;exitDy=0;entryX=0.5;entryY=0;entryDx=0;entryDy=0;endArrow=none;endFill=0;" parent="1" source="HNxDSSGyj5gucgepbjGK-55" target="HNxDSSGyj5gucgepbjGK-58" edge="1">
          <mxGeometry relative="1" as="geometry" />
        </mxCell>
        <mxCell id="HNxDSSGyj5gucgepbjGK-55" value="Útvonal" style="rounded=0;whiteSpace=wrap;html=1;fillColor=#f8cecc;strokeColor=#b85450;" parent="1" vertex="1">
          <mxGeometry x="360" y="360" width="120" height="40" as="geometry" />
        </mxCell>
        <mxCell id="HNxDSSGyj5gucgepbjGK-58" value="&lt;u&gt;UID&lt;/u&gt;" style="ellipse;whiteSpace=wrap;html=1;fillColor=#d5e8d4;strokeColor=#82b366;" parent="1" vertex="1">
          <mxGeometry x="200" y="440" width="80" height="40" as="geometry" />
        </mxCell>
        <mxCell id="HNxDSSGyj5gucgepbjGK-59" value="Kezdeti&lt;br&gt;áll." style="ellipse;whiteSpace=wrap;html=1;fillColor=#d5e8d4;strokeColor=#82b366;" parent="1" vertex="1">
          <mxGeometry x="320" y="440" width="80" height="40" as="geometry" />
        </mxCell>
        <mxCell id="HNxDSSGyj5gucgepbjGK-60" value="Vég áll." style="ellipse;whiteSpace=wrap;html=1;fillColor=#d5e8d4;strokeColor=#82b366;" parent="1" vertex="1">
          <mxGeometry x="440" y="440" width="80" height="40" as="geometry" />
        </mxCell>
        <mxCell id="HNxDSSGyj5gucgepbjGK-73" style="edgeStyle=none;rounded=0;orthogonalLoop=1;jettySize=auto;html=1;exitX=0;exitY=0.5;exitDx=0;exitDy=0;entryX=1;entryY=0.5;entryDx=0;entryDy=0;endArrow=classic;endFill=1;" parent="1" source="HNxDSSGyj5gucgepbjGK-68" target="HNxDSSGyj5gucgepbjGK-71" edge="1">
          <mxGeometry relative="1" as="geometry" />
        </mxCell>
        <mxCell id="tF4nlggrzh0afvCH11KV-1" style="edgeStyle=orthogonalEdgeStyle;rounded=0;orthogonalLoop=1;jettySize=auto;html=1;exitX=1;exitY=0.5;exitDx=0;exitDy=0;entryX=0.5;entryY=1;entryDx=0;entryDy=0;endArrow=doubleBlock;endFill=1;" parent="1" source="HNxDSSGyj5gucgepbjGK-68" target="HNxDSSGyj5gucgepbjGK-16" edge="1">
          <mxGeometry relative="1" as="geometry" />
        </mxCell>
        <mxCell id="HNxDSSGyj5gucgepbjGK-68" value="Ellenőriz" style="rhombus;whiteSpace=wrap;html=1;" parent="1" vertex="1">
          <mxGeometry x="600" y="560" width="80" height="40" as="geometry" />
        </mxCell>
        <mxCell id="HNxDSSGyj5gucgepbjGK-77" style="edgeStyle=none;rounded=0;orthogonalLoop=1;jettySize=auto;html=1;exitX=0.5;exitY=1;exitDx=0;exitDy=0;entryX=0.5;entryY=0;entryDx=0;entryDy=0;endArrow=none;endFill=0;" parent="1" source="HNxDSSGyj5gucgepbjGK-71" target="HNxDSSGyj5gucgepbjGK-75" edge="1">
          <mxGeometry relative="1" as="geometry" />
        </mxCell>
        <mxCell id="HNxDSSGyj5gucgepbjGK-79" style="edgeStyle=none;rounded=0;orthogonalLoop=1;jettySize=auto;html=1;exitX=0.5;exitY=1;exitDx=0;exitDy=0;entryX=0.5;entryY=0;entryDx=0;entryDy=0;endArrow=none;endFill=0;" parent="1" source="HNxDSSGyj5gucgepbjGK-71" target="HNxDSSGyj5gucgepbjGK-74" edge="1">
          <mxGeometry relative="1" as="geometry" />
        </mxCell>
        <mxCell id="ZCO3qO8mkrUIWo-Z3ocP-2" style="rounded=0;orthogonalLoop=1;jettySize=auto;html=1;exitX=0.5;exitY=1;exitDx=0;exitDy=0;entryX=0.5;entryY=0;entryDx=0;entryDy=0;endArrow=none;endFill=0;" parent="1" source="HNxDSSGyj5gucgepbjGK-71" target="ZCO3qO8mkrUIWo-Z3ocP-1" edge="1">
          <mxGeometry relative="1" as="geometry" />
        </mxCell>
        <mxCell id="ZCO3qO8mkrUIWo-Z3ocP-11" style="edgeStyle=none;rounded=0;orthogonalLoop=1;jettySize=auto;html=1;exitX=0.5;exitY=1;exitDx=0;exitDy=0;entryX=0.5;entryY=0;entryDx=0;entryDy=0;endArrow=none;endFill=0;" parent="1" source="HNxDSSGyj5gucgepbjGK-71" target="rYQzbLz1UwJ6R6FwuexM-9" edge="1">
          <mxGeometry relative="1" as="geometry" />
        </mxCell>
        <mxCell id="Le_J_JZWBAl_vHF9AjN5-2" style="rounded=0;orthogonalLoop=1;jettySize=auto;html=1;exitX=0.5;exitY=1;exitDx=0;exitDy=0;entryX=0.5;entryY=0;entryDx=0;entryDy=0;endArrow=none;endFill=0;" parent="1" source="HNxDSSGyj5gucgepbjGK-71" target="Le_J_JZWBAl_vHF9AjN5-1" edge="1">
          <mxGeometry relative="1" as="geometry" />
        </mxCell>
        <mxCell id="HNxDSSGyj5gucgepbjGK-71" value="Kalaúz" style="rounded=0;whiteSpace=wrap;html=1;fillColor=#f8cecc;strokeColor=#b85450;" parent="1" vertex="1">
          <mxGeometry x="360" y="560" width="120" height="40" as="geometry" />
        </mxCell>
        <mxCell id="HNxDSSGyj5gucgepbjGK-74" value="&lt;u&gt;FID&lt;/u&gt;" style="ellipse;whiteSpace=wrap;html=1;fillColor=#d5e8d4;strokeColor=#82b366;" parent="1" vertex="1">
          <mxGeometry x="130" y="720" width="80" height="40" as="geometry" />
        </mxCell>
        <mxCell id="HNxDSSGyj5gucgepbjGK-75" value="Név" style="ellipse;whiteSpace=wrap;html=1;fillColor=#d5e8d4;strokeColor=#82b366;" parent="1" vertex="1">
          <mxGeometry x="230" y="720" width="80" height="40" as="geometry" />
        </mxCell>
        <mxCell id="rYQzbLz1UwJ6R6FwuexM-1" value="menetido" style="ellipse;whiteSpace=wrap;html=1;fillColor=#d5e8d4;strokeColor=#82b366;" parent="1" vertex="1">
          <mxGeometry x="280" y="280" width="80" height="40" as="geometry" />
        </mxCell>
        <mxCell id="rYQzbLz1UwJ6R6FwuexM-5" value="km" style="ellipse;whiteSpace=wrap;html=1;fillColor=#d5e8d4;strokeColor=#82b366;" parent="1" vertex="1">
          <mxGeometry x="560" y="440" width="80" height="40" as="geometry" />
        </mxCell>
        <mxCell id="ZCO3qO8mkrUIWo-Z3ocP-18" style="edgeStyle=none;rounded=0;orthogonalLoop=1;jettySize=auto;html=1;exitX=0.5;exitY=1;exitDx=0;exitDy=0;entryX=0.5;entryY=0;entryDx=0;entryDy=0;endArrow=none;endFill=0;" parent="1" source="rYQzbLz1UwJ6R6FwuexM-9" target="ZCO3qO8mkrUIWo-Z3ocP-16" edge="1">
          <mxGeometry relative="1" as="geometry" />
        </mxCell>
        <mxCell id="ZCO3qO8mkrUIWo-Z3ocP-19" style="edgeStyle=none;rounded=0;orthogonalLoop=1;jettySize=auto;html=1;exitX=0.5;exitY=1;exitDx=0;exitDy=0;entryX=0.5;entryY=0;entryDx=0;entryDy=0;endArrow=none;endFill=0;" parent="1" source="rYQzbLz1UwJ6R6FwuexM-9" target="ZCO3qO8mkrUIWo-Z3ocP-17" edge="1">
          <mxGeometry relative="1" as="geometry" />
        </mxCell>
        <mxCell id="rYQzbLz1UwJ6R6FwuexM-9" value="elerhetoseg" style="ellipse;whiteSpace=wrap;html=1;fillColor=#d5e8d4;strokeColor=#82b366;" parent="1" vertex="1">
          <mxGeometry x="630" y="720" width="80" height="40" as="geometry" />
        </mxCell>
        <mxCell id="ZCO3qO8mkrUIWo-Z3ocP-1" value="SzID" style="ellipse;whiteSpace=wrap;html=1;fillColor=#d5e8d4;strokeColor=#82b366;" parent="1" vertex="1">
          <mxGeometry x="530" y="720" width="80" height="40" as="geometry" />
        </mxCell>
        <mxCell id="ZCO3qO8mkrUIWo-Z3ocP-16" value="email" style="ellipse;whiteSpace=wrap;html=1;fillColor=#d5e8d4;strokeColor=#82b366;" parent="1" vertex="1">
          <mxGeometry x="580" y="800" width="80" height="40" as="geometry" />
        </mxCell>
        <mxCell id="ZCO3qO8mkrUIWo-Z3ocP-17" value="irodaszam" style="ellipse;whiteSpace=wrap;html=1;fillColor=#d5e8d4;strokeColor=#82b366;" parent="1" vertex="1">
          <mxGeometry x="680" y="800" width="80" height="40" as="geometry" />
        </mxCell>
        <mxCell id="DKuBouBsG_Wq9-a0t9Dg-192" style="edgeStyle=none;rounded=0;orthogonalLoop=1;jettySize=auto;html=1;entryX=0.5;entryY=1;entryDx=0;entryDy=0;endArrow=classic;endFill=1;" parent="1" source="DKuBouBsG_Wq9-a0t9Dg-191" target="HNxDSSGyj5gucgepbjGK-36" edge="1">
          <mxGeometry relative="1" as="geometry" />
        </mxCell>
        <mxCell id="DKuBouBsG_Wq9-a0t9Dg-217" style="edgeStyle=none;rounded=0;orthogonalLoop=1;jettySize=auto;html=1;entryX=1;entryY=0.5;entryDx=0;entryDy=0;endArrow=classic;endFill=1;" parent="1" source="DKuBouBsG_Wq9-a0t9Dg-191" target="DKuBouBsG_Wq9-a0t9Dg-211" edge="1">
          <mxGeometry relative="1" as="geometry" />
        </mxCell>
        <mxCell id="DKuBouBsG_Wq9-a0t9Dg-191" value="felettes" style="rhombus;whiteSpace=wrap;html=1;fillColor=#f5f5f5;fontColor=#333333;strokeColor=#666666;" parent="1" vertex="1">
          <mxGeometry x="-160" y="260" width="80" height="40" as="geometry" />
        </mxCell>
        <mxCell id="DKuBouBsG_Wq9-a0t9Dg-207" style="edgeStyle=none;rounded=0;orthogonalLoop=1;jettySize=auto;html=1;exitX=0.5;exitY=0;exitDx=0;exitDy=0;entryX=0.5;entryY=1;entryDx=0;entryDy=0;endArrow=none;endFill=0;" parent="1" source="DKuBouBsG_Wq9-a0t9Dg-211" target="DKuBouBsG_Wq9-a0t9Dg-212" edge="1">
          <mxGeometry relative="1" as="geometry" />
        </mxCell>
        <mxCell id="DKuBouBsG_Wq9-a0t9Dg-208" style="edgeStyle=none;rounded=0;orthogonalLoop=1;jettySize=auto;html=1;exitX=0.5;exitY=0;exitDx=0;exitDy=0;entryX=0.5;entryY=1;entryDx=0;entryDy=0;endArrow=none;endFill=0;" parent="1" source="DKuBouBsG_Wq9-a0t9Dg-211" target="DKuBouBsG_Wq9-a0t9Dg-214" edge="1">
          <mxGeometry relative="1" as="geometry" />
        </mxCell>
        <mxCell id="DKuBouBsG_Wq9-a0t9Dg-209" style="edgeStyle=none;rounded=0;orthogonalLoop=1;jettySize=auto;html=1;exitX=0.5;exitY=0;exitDx=0;exitDy=0;entryX=0.5;entryY=1;entryDx=0;entryDy=0;endArrow=none;endFill=0;" parent="1" source="DKuBouBsG_Wq9-a0t9Dg-211" target="DKuBouBsG_Wq9-a0t9Dg-215" edge="1">
          <mxGeometry relative="1" as="geometry" />
        </mxCell>
        <mxCell id="DKuBouBsG_Wq9-a0t9Dg-210" style="edgeStyle=none;rounded=0;orthogonalLoop=1;jettySize=auto;html=1;exitX=0.5;exitY=0;exitDx=0;exitDy=0;entryX=0.5;entryY=1;entryDx=0;entryDy=0;endArrow=none;endFill=0;" parent="1" source="DKuBouBsG_Wq9-a0t9Dg-211" target="DKuBouBsG_Wq9-a0t9Dg-213" edge="1">
          <mxGeometry relative="1" as="geometry" />
        </mxCell>
        <mxCell id="-K3vYQd_kjSM8WLM0Ynf-2" style="edgeStyle=none;rounded=0;orthogonalLoop=1;jettySize=auto;html=1;exitX=0.5;exitY=0;exitDx=0;exitDy=0;entryX=0.5;entryY=1;entryDx=0;entryDy=0;endArrow=none;endFill=0;" parent="1" source="DKuBouBsG_Wq9-a0t9Dg-211" target="-K3vYQd_kjSM8WLM0Ynf-1" edge="1">
          <mxGeometry relative="1" as="geometry" />
        </mxCell>
        <mxCell id="DKuBouBsG_Wq9-a0t9Dg-211" value="Főnök" style="rounded=0;whiteSpace=wrap;html=1;fillColor=#f8cecc;strokeColor=#b85450;" parent="1" vertex="1">
          <mxGeometry x="-300" y="340" width="120" height="40" as="geometry" />
        </mxCell>
        <mxCell id="DKuBouBsG_Wq9-a0t9Dg-212" value="Vezetéknév" style="ellipse;whiteSpace=wrap;html=1;fillColor=#d5e8d4;strokeColor=#82b366;" parent="1" vertex="1">
          <mxGeometry x="-440" y="370" width="80" height="40" as="geometry" />
        </mxCell>
        <mxCell id="DKuBouBsG_Wq9-a0t9Dg-213" value="&lt;u&gt;FID&lt;/u&gt;" style="ellipse;whiteSpace=wrap;html=1;fillColor=#d5e8d4;strokeColor=#82b366;" parent="1" vertex="1">
          <mxGeometry x="-440" y="430" width="80" height="40" as="geometry" />
        </mxCell>
        <mxCell id="DKuBouBsG_Wq9-a0t9Dg-214" value="Kerresztnev" style="ellipse;whiteSpace=wrap;html=1;fillColor=#d5e8d4;strokeColor=#82b366;" parent="1" vertex="1">
          <mxGeometry x="-440" y="310" width="80" height="40" as="geometry" />
        </mxCell>
        <mxCell id="DKuBouBsG_Wq9-a0t9Dg-215" value="szül.év" style="ellipse;whiteSpace=wrap;html=1;fillColor=#d5e8d4;strokeColor=#82b366;" parent="1" vertex="1">
          <mxGeometry x="-400" y="260" width="80" height="40" as="geometry" />
        </mxCell>
        <mxCell id="-K3vYQd_kjSM8WLM0Ynf-1" value="SzID" style="ellipse;whiteSpace=wrap;html=1;fillColor=#d5e8d4;strokeColor=#82b366;" parent="1" vertex="1">
          <mxGeometry x="-310" y="240" width="80" height="40" as="geometry" />
        </mxCell>
        <mxCell id="Le_J_JZWBAl_vHF9AjN5-1" value="telefonszam" style="ellipse;whiteSpace=wrap;html=1;fillColor=#d5e8d4;strokeColor=#82b366;" parent="1" vertex="1">
          <mxGeometry x="330.5" y="720" width="80" height="40" as="geometry" />
        </mxCell>
        <mxCell id="Le_J_JZWBAl_vHF9AjN5-3" value="telefonszam" style="ellipse;whiteSpace=wrap;html=1;fillColor=#d5e8d4;strokeColor=#82b366;" parent="1" vertex="1">
          <mxGeometry x="336" y="725" width="70" height="30" as="geometry" />
        </mxCell>
      </root>
    </mxGraphModel>
  </diagram>
</mxfile>
